<svg xmlns="http://www.w3.org/2000/svg" version="1.1" width="473.127" height="141.11" viewBox="0 0 133.527 39.824" id="svg2" xml:space="preserve" style="fill-rule:evenodd"><g transform="translate(-33.898 -111.577)" id="Camada_x0020_1"><circle cx="50.037" cy="135.125" id="ellipse10" style="fill:none" r="16.14"/><ellipse cx="50.037" cy="135.09" rx="7.673" ry="7.99" id="ellipse12" style="fill:none"/><path d="m84.522 118.633.176 9.172c-3.713-.102-5.535 1.545-5.468 4.94v17.814h-8.643v-16.404c.176-9.513 4.821-14.687 13.934-15.522z" id="path14" style="fill:none"/><path d="M97.75 111.577h-8.29v38.982h8.114V139.27c6.69-.862 9.923 2.901 9.702 11.289h8.114c.428-10.06-3.1-16.234-9.878-17.815l11.112-13.23H106.57l-8.82 11.29v-19.227z" id="path16" style="fill:none"/><path class="fil0" id="line18" style="fill:none" d="m120.505 119.867.176 19.58"/><path d="M120.681 139.447c1.468 15.343 25.986 16.524 28.046 0l.176-19.58-8.643-.176.177 16.052c-.368 10.113-11.48 9.937-11.642 0v-16.228l-8.29.353" id="path20" style="fill:none"/><path d="m153.49 136.095-.176-24.165h8.466v7.584h5.645v8.467h-5.468v8.996c.78 3.482 2.544 5.364 5.291 5.644l.177 8.467c-8.045.304-14.16-6.34-13.935-14.993z" id="path22" style="fill:none"/><path d="M66.177 135.125c0-8.914-7.226-16.14-16.14-16.14-8.913 0-16.14 7.226-16.14 16.14 0 8.914 7.227 16.14 16.14 16.14 8.914 0 16.14-7.226 16.14-16.14zm-16.14-8.026c4.238 0 7.673 3.578 7.673 7.99 0 4.413-3.435 7.99-7.673 7.99-4.237 0-7.672-3.577-7.672-7.99 0-4.412 3.435-7.99 7.672-7.99z" id="path24" style="fill:#ed2590"/><path d="M84.522 118.633c-9.114.835-13.759 6.009-13.935 15.522v16.404h8.643v-17.815c-.067-3.394 1.755-5.04 5.468-4.939l-.176-9.172z" id="path26" style="fill:#ed2590"/><path d="M89.46 111.577v38.982h8.114V139.27c6.69-.862 9.923 2.901 9.702 11.289h8.114c.428-10.06-3.1-16.234-9.878-17.815l11.112-13.23H106.57l-8.82 11.29v-19.227h-8.29z" id="path28" style="fill:#ed2590"/><path d="m120.505 119.867.176 19.58c1.468 15.342 25.986 16.524 28.046 0l.177-19.58-8.643-.176.176 16.051c-.368 10.113-11.48 9.937-11.642 0v-16.228l-8.29.353z" id="path30" style="fill:#ed2590"/><path d="m153.313 111.93.176 24.165c-.224 8.654 5.89 15.297 13.935 14.993l-.176-8.466c-2.748-.281-4.512-2.163-5.292-5.645v-8.996h5.468v-8.466h-5.644v-7.585h-8.467z" id="path32" style="fill:#ed2590"/></g></svg>